<?xml version="1.0" encoding="utf-8"?>
<!-- Generator: Adobe Illustrator 19.2.1, SVG Export Plug-In . SVG Version: 6.00 Build 0)  -->
<svg version="1.1" id="Layer_1" xmlns="http://www.w3.org/2000/svg" xmlns:xlink="http://www.w3.org/1999/xlink" x="0px" y="0px"
	 viewBox="0 0 327.8 99.8" style="enable-background:new 0 0 327.8 99.8;" xml:space="preserve">
<style type="text/css">
	.st0{fill:#639A3A;}
	.st1{fill:#FFFFFF;}
</style>
<g>
	<path class="st0" d="M99.4,9.5c-3.1,0-5.7,2.5-5.7,5.7s2.5,5.7,5.7,5.7c3.1,0,5.7-2.5,5.7-5.7S102.5,9.5,99.4,9.5"/>
	<rect x="289.5" y="0.7" class="st0" width="10" height="80.1"/>
	<rect x="306.3" y="0.7" class="st0" width="10" height="80.1"/>
	<g>
		<path class="st0" d="M169.6,98.8c-8,0-16.1-3.3-21.1-8.5l-0.6-0.7l7.1-7.6l0.7,0.7c0.1,0.1,5.7,5.4,13.6,5.4
			c7.2,0,11.9-3.9,11.9-9.9c0-6-4.7-10.4-11.1-10.4c-6.2,0-10.1,3.6-11.5,5.1l-0.7,0.8l-7-7.7l0.6-0.7c1.2-1.3,3.1-3,5.2-4.3
			c-4.6-3.7-7.2-10.2-7.2-17.9c0-13.4,7.2-21.5,19.3-21.5c2.1,0,4,0.3,5.8,0.5c1.8,0.2,3.7,0.5,5.8,0.5c4,0,6.8-0.7,6.8-0.7l1-0.2
			l2.1,9.1l-0.9,0.3c-0.1,0-1.9,0.6-4.7,0.7c2.5,3.4,3.8,8.1,3.8,13.2c0,6.9-2.6,12.8-7.1,16.1c6.9,3.1,11.1,9.7,11.1,17.8
			C192.6,90.6,183.1,98.8,169.6,98.8z M168.7,31.7c-4.7,0-7.9,5-7.9,12.6c0,9.4,4.2,12.8,7.9,12.8c4.9,0,8-4.9,8-12.7
			C176.7,36.5,173.7,31.7,168.7,31.7z"/>
		<path class="st1" d="M168.7,22.7c4.1,0,7.4,1,11.6,1c4.1,0,7.1-0.7,7.1-0.7l1.7,7.3c0,0-2,0.7-5,0.7c-0.5,0-1,0-1.5-0.1
			c3,3.1,5,8.2,5,14.3c0,7.5-3.2,13.5-8.3,16.3c7.2,2.4,12.3,8.9,12.3,17.6c0,11.8-9.9,18.8-22,18.8c-8.5,0-16-3.6-20.3-8.2l5.7-6.2
			c0,0,5.9,5.7,14.3,5.7c7.3,0,12.9-3.8,12.9-10.9c0-6.8-5.2-11.4-12.1-11.4c-5.6,0-9.8,2.8-12.2,5.4l-5.6-6.2
			c1.4-1.5,3.8-3.6,6.3-4.9c-5.2-3.3-8.1-10.2-8.1-17.9C150.5,30.7,156.8,22.7,168.7,22.7 M168.7,58c5.6,0,9-5.3,9-13.7
			c0-8.4-3.6-13.7-9-13.7c-5.2,0-8.9,5.2-8.9,13.6C159.9,53.8,164.2,58,168.7,58 M161.4,60c0,0,0.1,0,0.1,0
			C161.5,59.9,161.5,59.9,161.4,60C161.4,59.9,161.4,59.9,161.4,60 M173.2,60.4c-0.1,0-0.1,0-0.2,0c0,0-0.1,0-0.1,0
			C173,60.4,173.1,60.4,173.2,60.4 M188.9,20.6L187,21c0,0-2.8,0.6-6.6,0.6c-2,0-3.8-0.2-5.7-0.5c-1.9-0.3-3.8-0.5-5.9-0.5
			c-12.7,0-20.3,8.4-20.3,22.5c0,7.4,2.4,13.8,6.6,17.8c-1.7,1.2-3.2,2.6-4.3,3.7l-1.3,1.3l1.2,1.4l5.6,6.2l1.5,1.6l1.5-1.6
			c1.3-1.4,5-4.8,10.8-4.8c5.9,0,10.1,3.9,10.1,9.4c0,6.6-5.6,8.9-10.9,8.9c-7.5,0-12.8-5.1-12.9-5.2l-1.5-1.4l-1.4,1.5l-5.7,6.2
			l-1.3,1.4l1.3,1.4c5.2,5.5,13.5,8.8,21.8,8.8c14.1,0,24-8.5,24-20.8c0-7.9-3.8-14.5-10.3-18c4-3.6,6.3-9.3,6.3-15.9
			c0-4.6-1.1-8.9-3.1-12.3c1.9-0.2,3.2-0.6,3.2-0.6l1.7-0.6l-0.4-1.8l-1.7-7.3L188.9,20.6L188.9,20.6z M168.7,56
			c-4.2,0-6.9-4.6-6.9-11.8c0-6.9,2.8-11.6,6.9-11.6c4.3,0,7,4.5,7,11.7C175.7,50,173.9,56,168.7,56L168.7,56z"/>
	</g>
	<path class="st0" d="M67.2,72.2c-2.1-0.4-3.4-1.6-3.4-5.3V42.7c0-15.2-5.3-20.6-17.2-20.6c-7.2,0-12.5,3-12.5,3l0.2,8.1
		c0,0,5.7-2.7,10.8-2.7c6.9,0,9.6,4.6,9.6,10.9v4.2c-2.3-3.4-6.5-4.7-10.3-4.7C35.9,41,29,47.9,29,61.2C29,74.8,36.5,82,44.9,82
		c3.5,0,8.3-1.9,11.4-7.1c0.8,3.2,3.2,6.3,9.2,6.3c3.3,0,5.1-0.5,5.1-0.5v-8.4C70.6,72.3,69.4,72.7,67.2,72.2 M46.5,73.7
		c-4.1,0-7.6-3.1-7.6-12.4c0-7.9,2.6-12.4,7.4-12.4c5.2,0,8.4,5.2,8.4,12.3C54.8,67.6,51.1,73.7,46.5,73.7"/>
	<path class="st0" d="M83,12.2l-10,3.1v8.4H67v9.2h6.1v33.9c0,10.3,4.4,14.6,13.1,14.6c1.3,0,2.1-0.1,3.4-0.6v-8.4
		c-0.8,0.2-1.1,0.2-1.8,0.2c-4,0-4.8-1.2-4.8-6.9V32.8h6.6v-9.2H83V12.2z"/>
	<rect x="94.4" y="23.7" class="st0" width="10" height="57.1"/>
	<path class="st0" d="M132.5,22.1c-3.9,0-8.8,2.1-12.3,7.5v-5.9h-9.1v57.1h10V43.9c0-6.6,5.2-13.1,9.9-13.1c3.9,0,5.1,2.8,5.1,7.7
		v42.2h10V38.1c0-5.6-1.2-9.1-3.6-11.8C140.2,23.6,136.5,22.1,132.5,22.1"/>
	<polygon class="st0" points="243.7,0.7 233,53.2 223.5,0 215.8,0 206.2,53.1 195.1,0.7 185.1,0.7 203.5,81.7 209.4,81.7 
		219.7,26.2 229.7,81.7 235.7,81.7 254.1,0.7 	"/>
	<path class="st0" d="M268.2,73.2c-5.7,0-9.5-6.2-9.5-15.7c0-1.4,0-2,0-2.3l25.3,0c0.1-3.4,0.2-4.5,0.2-6.2
		c0-16.6-4.9-26.8-16.8-26.8c-12.2,0-18.1,11.1-18.1,30.2c0,19.2,7.7,29.7,18.7,29.7c7.6,0,13.1-4.7,16.3-12.8l-7.1-4
		C274.8,69.7,272.4,73.2,268.2,73.2 M267.3,30.4c4.9,0,7.4,5.3,7.4,16.4H259C259,35.4,262.7,30.4,267.3,30.4"/>
	<polygon class="st0" points="0,80.8 28,80.8 28,70.9 10.2,70.9 10.2,44.3 25.6,44.3 25.6,34.5 10.2,34.5 10.2,10.5 28.2,10.5 
		28.2,0.7 0,0.7 	"/>
	<path class="st0" d="M324.1,74.2c-2.1,0-3.7,1.6-3.7,3.7c0,2.1,1.6,3.7,3.7,3.7c2.1,0,3.7-1.6,3.7-3.7
		C327.8,75.7,326.2,74.2,324.1,74.2 M324.1,80.9c-1.8,0-3.1-1.3-3.1-3.1c0-1.8,1.3-3.1,3.1-3.1c1.8,0,3.1,1.3,3.1,3.1
		C327.2,79.6,325.9,80.9,324.1,80.9"/>
	<path class="st0" d="M325.6,77.3c0-0.8-0.6-1.2-1.3-1.2h-1.7v3.6h0.8v-1.3h0.4l1.1,1.3h0.9v-0.1l-1.1-1.1
		C325.2,78.2,325.6,77.9,325.6,77.3 M324.3,77.8h-0.8v-1.1h0.8c0.3,0,0.6,0.2,0.6,0.6C324.8,77.6,324.6,77.8,324.3,77.8"/>
</g>
</svg>
